%
M48
M72
T01C0.01378
T02C0.03200
T03C0.04000
T04C0.04400
T05C0.04700
T06C0.12598
T07C0.13000
%
T01
X86733Y52481
T02
X82560Y45001
X72560Y45001
X62560Y45001
X52560Y45001
X42560Y45001
X103741Y45001
X113741Y45001
X123741Y45001
X133741Y45001
X143741Y45001
X153741Y45001
X163741Y45001
X181615Y46497
X191615Y46497
X188544Y68887
X188544Y87887
X188072Y106812
X198072Y106812
X175591Y107501
X165591Y107501
X153308Y107501
X133308Y107501
X96772Y107501
X76772Y107501
X67402Y107501
X47402Y107501
X36221Y107501
X16221Y107501
X17442Y91300
X27442Y91300
X221709Y107599
X229709Y107599
X245331Y107599
X253331Y107599
T03
X25948Y77092
X8148Y77092
X8148Y51492
X25948Y51492
T04
X41812Y61812
X51812Y61812
X61812Y61812
X71812Y61812
X81812Y61812
X91812Y61812
X101812Y61812
X111812Y61812
X121812Y61812
X131812Y61812
X141812Y61812
X151812Y61812
X161812Y61812
X171812Y61812
X171812Y91812
X161812Y91812
X151812Y91812
X141812Y91812
X131812Y91812
X121812Y91812
X111812Y91812
X101812Y91812
X91812Y91812
X81812Y91812
X71812Y91812
X61812Y91812
X51812Y91812
X41812Y91812
X231457Y80670
X241457Y80670
X251457Y80670
T05
X217639Y140237
X197954Y140237
X142481Y141083
X122796Y141083
X97363Y141083
X77678Y141083
T06
X24922Y20985
X182402Y20985
X257206Y135158
X28859Y135158
T07
X241457Y21670
M30
